# xmcd
#
# Track frame offsets:
#	183
#	11763
#	23155
#	32298
#	43413
#	55135
#	65603
#	79955
#	92368
#	105495
#	115780
#	124278
#	136035
#	147670
#	157768
#	169593
#
# Disc length: 2400
#
# Revision: 3
# Processed by: cddbd v1.5.1PL0 Copyright (c) Steve Scherf et al.
# Submitted via: CDex 1.40Release
# Normalized: r0:DSETVAR1,TSWAP
#
DISCID=cb095e10
DTITLE=Various Artist - All Time Country Hits - Vol II
DYEAR=1987
DGENRE=Country
TTITLE0=Jim Reeves - Welcome To My World
TTITLE1=Don Gibson - Oh Lonesome Me
TTITLE2=Bob Luman - Let's Think About Living
TTITLE3=Johnny Horton - The Battle Of New Orleans
TTITLE4=Slim Whitman - Secret Love
TTITLE5=Jerry Wallace - Primrose Lane
TTITLE6=Marty Robbins - Cool Water
TTITLE7=Skeeter Davis - Your Cheatin Heart
TTITLE8=Bobby Helms - My Special Angel
TTITLE9=Jerry Lee Lewis - Bonnie B.
TTITLE10=Johnny Cash - I Forgot To Remember
TTITLE11=Ronnie Hawkins - Cold Cold Heart
TTITLE12=Patsy Cline - Today, Tomorrow And Forever
TTITLE13=Conway Twitty - Lonely Blue Boy
TTITLE14=Carl Perkins - That's Right
TTITLE15=Floyd Cramer - San Antonio Rose
EXTD=YEAR: 1987 ID3G: 2
EXTT0=
EXTT1=
EXTT2=
EXTT3=
EXTT4=
EXTT5=
EXTT6=
EXTT7=
EXTT8=
EXTT9=
EXTT10=
EXTT11=
EXTT12=
EXTT13=
EXTT14=
EXTT15=
PLAYORDER=
